<svg width="84" height="22" viewBox="0 0 84 22" fill="none" xmlns="http://www.w3.org/2000/svg">
<g clip-path="url(#clip0_1060_51363)">
<g clip-path="url(#clip1_1060_51363)">
<path d="M82.5722 10.6081L82.4602 10.4961L82.5609 10.3729C83.2681 9.5395 83.6324 8.46864 83.5802 7.37689C83.4626 4.90169 81.2337 2.9585 78.5009 2.9585H72.6322C72.1677 2.95993 71.7223 3.14394 71.3923 3.47082C71.0623 3.7977 70.874 4.24123 70.8682 4.7057V17.2217C70.8682 17.4533 70.9138 17.6827 71.0024 17.8967C71.0911 18.1108 71.221 18.3052 71.3848 18.469C71.5486 18.6328 71.7431 18.7628 71.9571 18.8514C72.1711 18.9401 72.4005 18.9857 72.6322 18.9857H78.4842C79.9075 18.9928 81.2834 18.4743 82.3482 17.5297C82.86 17.0905 83.2721 16.547 83.557 15.9357C83.8419 15.3244 83.993 14.6593 84.0002 13.9849C83.9898 12.7147 83.4763 11.5004 82.5722 10.6081ZM74.3009 6.1729H78.7418C78.9405 6.14771 79.1423 6.16511 79.3337 6.22395C79.5252 6.28279 79.702 6.38171 79.8522 6.51415C80.0025 6.64658 80.1229 6.80949 80.2053 6.99203C80.2878 7.17458 80.3304 7.37259 80.3304 7.5729C80.3304 7.7732 80.2878 7.97121 80.2053 8.15376C80.1229 8.3363 80.0025 8.49921 79.8522 8.63164C79.702 8.76407 79.5252 8.863 79.3337 8.92184C79.1423 8.98068 78.9405 8.99808 78.7418 8.9729H74.3009V6.1729ZM78.7809 15.7769H74.3009V12.1985H78.7809C79.0243 12.1849 79.2679 12.221 79.4969 12.3048C79.7258 12.3886 79.9352 12.5182 80.1123 12.6856C80.2894 12.8531 80.4305 13.055 80.5269 13.2789C80.6234 13.5027 80.6731 13.7439 80.6731 13.9877C80.6731 14.2315 80.6234 14.4727 80.5269 14.6965C80.4305 14.9204 80.2894 15.1223 80.1123 15.2898C79.9352 15.4572 79.7258 15.5868 79.4969 15.6706C79.2679 15.7543 79.0243 15.7905 78.7809 15.7769Z" fill="black"/>
<path d="M63.6277 9.35361C62.2781 8.98961 60.6653 8.56961 60.6037 7.47761C60.5589 6.71041 61.1637 6.06641 62.1493 5.94321C64.1317 5.69121 65.9181 6.86161 66.8477 7.09121C67.0533 7.12947 67.2646 7.12449 67.4681 7.07661C67.6717 7.02872 67.8631 6.93897 68.0301 6.81307C68.1971 6.68717 68.336 6.52788 68.4381 6.34534C68.5401 6.16279 68.6031 5.96101 68.6229 5.75281C68.7741 4.55441 67.5869 3.89921 67.1389 3.62481C65.8862 2.91545 64.4616 2.56658 63.0229 2.61681C59.4949 2.61681 57.0365 4.65521 57.0365 7.57281C57.0036 8.2722 57.1456 8.96874 57.4497 9.59941C57.7538 10.2301 58.2104 10.775 58.778 11.1848C61.018 12.8648 65.4197 12.68 65.4253 14.4216C65.4253 15.9896 62.5357 16.9584 59.3493 14.8472C59.1166 14.6631 58.8368 14.5482 58.5419 14.5158C58.2469 14.4834 57.9489 14.5347 57.6818 14.6639C57.4146 14.793 57.1893 14.9948 57.0316 15.2461C56.8739 15.4975 56.7902 15.7881 56.7901 16.0848C56.7888 16.3666 56.8643 16.6435 57.0085 16.8856L56.9469 16.9192H57.0085L57.0644 17.0088C57.3953 17.464 57.8119 17.8502 58.2909 18.1456C59.6656 18.9783 61.2544 19.3891 62.8605 19.3272C64.4748 19.405 66.0673 18.9288 67.3741 17.9776C67.9214 17.5289 68.3578 16.96 68.6492 16.315C68.9406 15.67 69.0791 14.9665 69.0541 14.2592C69.0765 11.2072 66.4501 10.1264 63.6277 9.35361Z" fill="black"/>
<path d="M53.2392 2.96399H52.1528C51.8461 2.96431 51.5456 3.0512 51.2861 3.21465C51.0265 3.37811 50.8184 3.6115 50.6856 3.88799L46.956 11.5712L43.2376 3.88799C43.1063 3.61153 42.8992 3.37797 42.6405 3.21442C42.3818 3.05087 42.082 2.96404 41.776 2.96399H40.6896C40.229 2.96976 39.7887 3.15493 39.4625 3.48015C39.1362 3.80536 38.9496 4.24498 38.9424 4.70559V17.4176C38.9454 17.7249 39.0297 18.0259 39.1867 18.2901C39.3437 18.5542 39.5677 18.7722 39.8362 18.9217C40.1046 19.0713 40.4079 19.1472 40.7151 19.1417C41.0224 19.1362 41.3227 19.0495 41.5856 18.8904C41.8289 18.7553 42.0311 18.5571 42.1711 18.3166C42.3111 18.0761 42.3835 17.8022 42.3808 17.524V9.96959L45.4664 15.9056C45.6057 16.1852 45.8202 16.4203 46.0858 16.5847C46.3514 16.7491 46.6576 16.8362 46.97 16.8362C47.2823 16.8362 47.5885 16.7491 47.8541 16.5847C48.1197 16.4203 48.3342 16.1852 48.4736 15.9056L51.5592 9.98079V17.524C51.5576 17.802 51.6306 18.0754 51.7704 18.3156C51.9103 18.5559 52.1119 18.7544 52.3544 18.8904C52.6173 19.0495 52.9176 19.1362 53.2249 19.1417C53.5321 19.1472 53.8353 19.0713 54.1038 18.9217C54.3722 18.7722 54.5963 18.5542 54.7533 18.2901C54.9103 18.0259 54.9945 17.7249 54.9976 17.4176V4.70559C54.9917 4.24261 54.804 3.8005 54.4751 3.47467C54.1461 3.14884 53.7022 2.96542 53.2392 2.96399Z" fill="black"/>
<path d="M14.8844 19.4337L5.51561 8.26725C4.75464 7.35642 4.38621 6.18084 4.49121 4.99861C4.5962 3.81638 5.16604 2.72413 6.07561 1.96165C6.98644 1.20069 8.16203 0.83226 9.34425 0.937253C10.5265 1.04225 11.6187 1.61208 12.3812 2.52165L21.7556 13.6657C22.5166 14.5765 22.885 15.7521 22.78 16.9343C22.675 18.1165 22.1052 19.2088 21.1956 19.9713C20.2873 20.7366 19.1122 21.1099 17.9287 21.0091C16.7452 20.9083 15.6502 20.3416 14.8844 19.4337Z" fill="url(#paint0_radial_1060_51363)"/>
<path d="M25.0148 6.32961L22.6908 17.4512C22.5733 18.029 22.343 18.5779 22.0129 19.0664C21.6829 19.555 21.2596 19.9735 20.7674 20.2982C20.2753 20.6228 19.7239 20.8471 19.1449 20.9582C18.5658 21.0693 17.9706 21.065 17.3932 20.9456C16.8141 20.8264 16.2643 20.5937 15.7755 20.261C15.2867 19.9283 14.8686 19.5021 14.5453 19.007C14.222 18.512 14 17.9578 13.8919 17.3765C13.7838 16.7952 13.7919 16.1982 13.9156 15.62L16.2396 4.49841C16.4833 3.33787 17.1772 2.32129 18.1692 1.67151C19.1612 1.02173 20.3704 0.791759 21.5316 1.03201C22.1084 1.15076 22.6561 1.38205 23.1433 1.71265C23.6306 2.04325 24.048 2.46667 24.3715 2.9587C24.695 3.45072 24.9183 4.0017 25.0287 4.58011C25.1391 5.15852 25.1344 5.75302 25.0148 6.32961Z" fill="url(#paint1_radial_1060_51363)"/>
<path d="M26.5719 19.4337L17.2031 8.26725C16.4421 7.35642 16.0737 6.18084 16.1787 4.99861C16.2837 3.81638 16.8535 2.72413 17.7631 1.96165C18.6739 1.20069 19.8495 0.83226 21.0318 0.937253C22.214 1.04225 23.3062 1.61208 24.0687 2.52165L33.4263 13.6657C34.1873 14.5765 34.5557 15.7521 34.4507 16.9343C34.3457 18.1165 33.7759 19.2088 32.8663 19.9713C31.9589 20.7314 30.7876 21.1015 29.6082 21.0007C28.4288 20.9 27.3373 20.3366 26.5719 19.4337Z" fill="url(#paint2_radial_1060_51363)"/>
<path d="M8.93723 16.1912C9.01214 17.1054 8.8046 18.0206 8.34268 18.8131C7.88076 19.6055 7.18671 20.2371 6.35431 20.6225C5.52191 21.0079 4.59128 21.1284 3.68816 20.9679C2.78504 20.8074 1.95296 20.3735 1.30435 19.7249C0.655739 19.0763 0.221858 18.2442 0.0613296 17.3411C-0.0991991 16.4379 0.0213602 15.5073 0.406724 14.6749C0.792088 13.8425 1.42368 13.1485 2.21616 12.6865C3.00864 12.2246 3.92381 12.0171 4.83803 12.092C5.89623 12.1787 6.88926 12.6384 7.64003 13.3892C8.39081 14.14 8.85053 15.133 8.93723 16.1912Z" fill="url(#paint3_radial_1060_51363)"/>
</g>
</g>
<defs>
<radialGradient id="paint0_radial_1060_51363" cx="0" cy="0" r="1" gradientUnits="userSpaceOnUse" gradientTransform="translate(15.6578 6.62449) scale(8.8592 8.8592)">
<stop stop-color="#9D0B0F"/>
<stop offset="0.07" stop-color="#AA0E12"/>
<stop offset="0.26" stop-color="#C7141A"/>
<stop offset="0.44" stop-color="#DB1820"/>
<stop offset="0.62" stop-color="#E81B23"/>
<stop offset="0.8" stop-color="#EC1C24"/>
</radialGradient>
<radialGradient id="paint1_radial_1060_51363" cx="0" cy="0" r="1" gradientUnits="userSpaceOnUse" gradientTransform="translate(23.8892 11.4222) scale(8.8886 8.8886)">
<stop offset="0.3" stop-color="#9D0B0F"/>
<stop offset="0.35" stop-color="#AA0E12"/>
<stop offset="0.48" stop-color="#C7141A"/>
<stop offset="0.6" stop-color="#DB1820"/>
<stop offset="0.73" stop-color="#E81B23"/>
<stop offset="0.85" stop-color="#EC1C24"/>
</radialGradient>
<radialGradient id="paint2_radial_1060_51363" cx="0" cy="0" r="1" gradientUnits="userSpaceOnUse" gradientTransform="translate(17.5063 1.96165) scale(18.963 18.963)">
<stop offset="0.35" stop-color="#EC1C24"/>
<stop offset="1" stop-color="#F26F21"/>
</radialGradient>
<radialGradient id="paint3_radial_1060_51363" cx="0" cy="0" r="1" gradientUnits="userSpaceOnUse" gradientTransform="translate(2.75315 18.014) scale(6.6542 6.6542)">
<stop offset="0.3" stop-color="#EC1C24"/>
<stop offset="1" stop-color="#9D0B0F"/>
</radialGradient>
<clipPath id="clip0_1060_51363">
<rect width="84" height="20.16" fill="white" transform="translate(0 0.920044)"/>
</clipPath>
<clipPath id="clip1_1060_51363">
<rect width="84" height="20.104" fill="white" transform="translate(0 0.920044)"/>
</clipPath>
</defs>
</svg>
