<svg width="35" height="22" viewBox="0 0 35 22" fill="none" xmlns="http://www.w3.org/2000/svg">
<g clip-path="url(#clip0_1060_51363)">
<g clip-path="url(#clip1_1060_51363)">
<path d="M14.8844 19.4337L5.51561 8.26725C4.75464 7.35642 4.38621 6.18084 4.49121 4.99861C4.5962 3.81638 5.16604 2.72413 6.07561 1.96165C6.98644 1.20069 8.16203 0.83226 9.34425 0.937253C10.5265 1.04225 11.6187 1.61208 12.3812 2.52165L21.7556 13.6657C22.5166 14.5765 22.885 15.7521 22.78 16.9343C22.675 18.1165 22.1052 19.2088 21.1956 19.9713C20.2873 20.7366 19.1122 21.1099 17.9287 21.0091C16.7452 20.9083 15.6502 20.3416 14.8844 19.4337Z" fill="url(#paint0_radial_1060_51363)"/>
<path d="M25.0148 6.32961L22.6908 17.4512C22.5733 18.029 22.343 18.5779 22.0129 19.0664C21.6829 19.555 21.2596 19.9735 20.7674 20.2982C20.2753 20.6228 19.7239 20.8471 19.1449 20.9582C18.5658 21.0693 17.9706 21.065 17.3932 20.9456C16.8141 20.8264 16.2643 20.5937 15.7755 20.261C15.2867 19.9283 14.8686 19.5021 14.5453 19.007C14.222 18.512 14 17.9578 13.8919 17.3765C13.7838 16.7952 13.7919 16.1982 13.9156 15.62L16.2396 4.49841C16.4833 3.33787 17.1772 2.32129 18.1692 1.67151C19.1612 1.02173 20.3704 0.791759 21.5316 1.03201C22.1084 1.15076 22.6561 1.38205 23.1433 1.71265C23.6306 2.04325 24.048 2.46667 24.3715 2.9587C24.695 3.45072 24.9183 4.0017 25.0287 4.58011C25.1391 5.15852 25.1344 5.75302 25.0148 6.32961Z" fill="url(#paint1_radial_1060_51363)"/>
<path d="M26.5719 19.4337L17.2031 8.26725C16.4421 7.35642 16.0737 6.18084 16.1787 4.99861C16.2837 3.81638 16.8535 2.72413 17.7631 1.96165C18.6739 1.20069 19.8495 0.83226 21.0318 0.937253C22.214 1.04225 23.3062 1.61208 24.0687 2.52165L33.4263 13.6657C34.1873 14.5765 34.5557 15.7521 34.4507 16.9343C34.3457 18.1165 33.7759 19.2088 32.8663 19.9713C31.9589 20.7314 30.7876 21.1015 29.6082 21.0007C28.4288 20.9 27.3373 20.3366 26.5719 19.4337Z" fill="url(#paint2_radial_1060_51363)"/>
<path d="M8.93723 16.1912C9.01214 17.1054 8.8046 18.0206 8.34268 18.8131C7.88076 19.6055 7.18671 20.2371 6.35431 20.6225C5.52191 21.0079 4.59128 21.1284 3.68816 20.9679C2.78504 20.8074 1.95296 20.3735 1.30435 19.7249C0.655739 19.0763 0.221858 18.2442 0.0613296 17.3411C-0.0991991 16.4379 0.0213602 15.5073 0.406724 14.6749C0.792088 13.8425 1.42368 13.1485 2.21616 12.6865C3.00864 12.2246 3.92381 12.0171 4.83803 12.092C5.89623 12.1787 6.88926 12.6384 7.64003 13.3892C8.39081 14.14 8.85053 15.133 8.93723 16.1912Z" fill="url(#paint3_radial_1060_51363)"/>
</g>
</g>
<defs>
<radialGradient id="paint0_radial_1060_51363" cx="0" cy="0" r="1" gradientUnits="userSpaceOnUse" gradientTransform="translate(15.6578 6.62449) scale(8.8592 8.8592)">
<stop stop-color="#9D0B0F"/>
<stop offset="0.07" stop-color="#AA0E12"/>
<stop offset="0.26" stop-color="#C7141A"/>
<stop offset="0.44" stop-color="#DB1820"/>
<stop offset="0.62" stop-color="#E81B23"/>
<stop offset="0.8" stop-color="#EC1C24"/>
</radialGradient>
<radialGradient id="paint1_radial_1060_51363" cx="0" cy="0" r="1" gradientUnits="userSpaceOnUse" gradientTransform="translate(23.8892 11.4222) scale(8.8886 8.8886)">
<stop offset="0.3" stop-color="#9D0B0F"/>
<stop offset="0.35" stop-color="#AA0E12"/>
<stop offset="0.48" stop-color="#C7141A"/>
<stop offset="0.6" stop-color="#DB1820"/>
<stop offset="0.73" stop-color="#E81B23"/>
<stop offset="0.85" stop-color="#EC1C24"/>
</radialGradient>
<radialGradient id="paint2_radial_1060_51363" cx="0" cy="0" r="1" gradientUnits="userSpaceOnUse" gradientTransform="translate(17.5063 1.96165) scale(18.963 18.963)">
<stop offset="0.35" stop-color="#EC1C24"/>
<stop offset="1" stop-color="#F26F21"/>
</radialGradient>
<radialGradient id="paint3_radial_1060_51363" cx="0" cy="0" r="1" gradientUnits="userSpaceOnUse" gradientTransform="translate(2.75315 18.014) scale(6.6542 6.6542)">
<stop offset="0.3" stop-color="#EC1C24"/>
<stop offset="1" stop-color="#9D0B0F"/>
</radialGradient>
<clipPath id="clip0_1060_51363">
<rect width="84" height="20.16" fill="white" transform="translate(0 0.920044)"/>
</clipPath>
<clipPath id="clip1_1060_51363">
<rect width="84" height="20.104" fill="white" transform="translate(0 0.920044)"/>
</clipPath>
</defs>
</svg>
